HIERARCHY
ROOT hip
{
  OFFSET 0 0 0
  CHANNELS 6 Xposition Yposition Zposition Zrotation Yrotation Xrotation
  JOINT abdomen
  {
    OFFSET 0 20.6881 -0.73152
    CHANNELS 3 Zrotation Xrotation Yrotation
    JOINT chest
    {
      OFFSET 0 11.7043 -0.48768
      CHANNELS 3 Zrotation Xrotation Yrotation
      JOINT neck
      {
        OFFSET 0 22.1894 -2.19456
        CHANNELS 3 Zrotation Xrotation Yrotation
        JOINT head
        {
          OFFSET -0.24384 7.07133 1.2192
          CHANNELS 3 Zrotation Xrotation Yrotation
          JOINT leftEye
          {
            OFFSET 4.14528 8.04674 8.04672
            CHANNELS 3 Zrotation Xrotation Yrotation
            End Site
            {
              OFFSET 1 0 0
            }
          }
          JOINT rightEye
          {
            OFFSET -3.6576 8.04674 8.04672
            CHANNELS 3 Zrotation Xrotation Yrotation
            End Site
            {
              OFFSET 1 0 0
            }
          }
        }
      }
      JOINT rCollar
      {
        OFFSET -2.68224 19.2634 -4.8768
        CHANNELS 3 Zrotation Xrotation Yrotation
        JOINT rShldr
        {
          OFFSET -8.77824 -1.95073 1.46304
          CHANNELS 3 Zrotation Xrotation Yrotation
          JOINT rForeArm
          {
            OFFSET -28.1742 -1.7115 0.48768
            CHANNELS 3 Zrotation Xrotation Yrotation
            JOINT rHand
            {
              OFFSET -22.5879 0.773209 7.07136
              CHANNELS 3 Zrotation Xrotation Yrotation
              JOINT rThumb1
              {
                OFFSET -1.2192 -0.487915 3.41376
                CHANNELS 3 Zrotation Xrotation Yrotation
                JOINT rThumb2
                {
                  OFFSET -3.37035 -0.52449 3.41376
                  CHANNELS 3 Zrotation Xrotation Yrotation
                  End Site
                  {
                    OFFSET -1.78271 -1.18214 1.43049
                  }
                }
              }
              JOINT rIndex1
              {
                OFFSET -7.75947 0.938293 5.60832
                CHANNELS 3 Zrotation Xrotation Yrotation
                JOINT rIndex2
                {
                  OFFSET -2.54057 -0.884171 1.56538
                  CHANNELS 3 Zrotation Xrotation Yrotation
                  End Site
                  {
                    OFFSET -1.62519 -0.234802 1.16502
                  }
                }
              }
              JOINT rMid1
              {
                OFFSET -8.24714 1.18213 3.41376
                CHANNELS 3 Zrotation Xrotation Yrotation
                JOINT rMid2
                {
                  OFFSET -3.10165 -0.590103 1.0647
                  CHANNELS 3 Zrotation Xrotation Yrotation
                  End Site
                  {
                    OFFSET -2.48547 -0.328903 0.83742
                  }
                }
              }
              JOINT rRing1
              {
                OFFSET -8.82822 0.546677 1.51678
                CHANNELS 3 Zrotation Xrotation Yrotation
                JOINT rRing2
                {
                  OFFSET -2.60934 -0.819778 -0.0198488
                  CHANNELS 3 Zrotation Xrotation Yrotation
                  End Site
                  {
                    OFFSET -2.33842 -0.294052 0.168128
                  }
                }
              }
              JOINT rPinky1
              {
                OFFSET -8.27202 -0.0477905 -0.4584
                CHANNELS 3 Zrotation Xrotation Yrotation
                JOINT rPinky2
                {
                  OFFSET -1.82734 -0.647385 -0.700984
                  CHANNELS 3 Zrotation Xrotation Yrotation
                  End Site
                  {
                    OFFSET -1.69225 -0.51767 -0.607171
                  }
                }
              }
            }
          }
        }
      }
      JOINT lCollar
      {
        OFFSET 2.68224 19.2634 -4.8768
        CHANNELS 3 Zrotation Xrotation Yrotation
        JOINT lShldr
        {
          OFFSET 8.77824 -1.95073 1.46304
          CHANNELS 3 Zrotation Xrotation Yrotation
          JOINT lForeArm
          {
            OFFSET 28.1742 -1.7115 0.48768
            CHANNELS 3 Zrotation Xrotation Yrotation
            JOINT lHand
            {
              OFFSET 22.5879 0.773209 7.07136
              CHANNELS 3 Zrotation Xrotation Yrotation
              JOINT lThumb1
              {
                OFFSET 1.2192 -0.487915 3.41376
                CHANNELS 3 Zrotation Xrotation Yrotation
                JOINT lThumb2
                {
                  OFFSET 3.37035 -0.52449 3.41376
                  CHANNELS 3 Zrotation Xrotation Yrotation
                  End Site
                  {
                    OFFSET 1.78271 -1.18214 1.43049
                  }
                }
              }
              JOINT lIndex1
              {
                OFFSET 7.75947 0.938293 5.60832
                CHANNELS 3 Zrotation Xrotation Yrotation
                JOINT lIndex2
                {
                  OFFSET 2.54057 -0.884171 1.56538
                  CHANNELS 3 Zrotation Xrotation Yrotation
                  End Site
                  {
                    OFFSET 1.62519 -0.234802 1.16502
                  }
                }
              }
              JOINT lMid1
              {
                OFFSET 8.24714 1.18213 3.41376
                CHANNELS 3 Zrotation Xrotation Yrotation
                JOINT lMid2
                {
                  OFFSET 3.10165 -0.590103 1.0647
                  CHANNELS 3 Zrotation Xrotation Yrotation
                  End Site
                  {
                    OFFSET 2.48547 -0.328903 0.83742
                  }
                }
              }
              JOINT lRing1
              {
                OFFSET 8.82822 0.546677 1.51678
                CHANNELS 3 Zrotation Xrotation Yrotation
                JOINT lRing2
                {
                  OFFSET 2.60934 -0.819778 -0.0198488
                  CHANNELS 3 Zrotation Xrotation Yrotation
                  End Site
                  {
                    OFFSET 2.33842 -0.294052 0.168128
                  }
                }
              }
              JOINT lPinky1
              {
                OFFSET 8.27202 -0.0477905 -0.4584
                CHANNELS 3 Zrotation Xrotation Yrotation
                JOINT lPinky2
                {
                  OFFSET 1.82734 -0.647385 -0.700984
                  CHANNELS 3 Zrotation Xrotation Yrotation
                  End Site
                  {
                    OFFSET 1.69225 -0.51767 -0.607171
                  }
                }
              }
            }
          }
        }
      }
    }
  }
  JOINT rButtock
  {
    OFFSET -8.77824 4.35084 1.2192
    CHANNELS 3 Zrotation Xrotation Yrotation
    JOINT rThigh
    {
      OFFSET 0 -1.70687 -2.19456
      CHANNELS 3 Zrotation Xrotation Yrotation
      JOINT rShin
      {
        OFFSET 0 -36.8199 0.73152
        CHANNELS 3 Zrotation Xrotation Yrotation
        JOINT rFoot
        {
          OFFSET 0.73152 -45.1104 -5.12064
          CHANNELS 3 Zrotation Xrotation Yrotation
          End Site
          {
            OFFSET -1.1221 -3.69964 12.103
          }
        }
      }
    }
  }
  JOINT lButtock
  {
    OFFSET 8.77824 4.35084 1.2192
    CHANNELS 3 Zrotation Xrotation Yrotation
    JOINT lThigh
    {
      OFFSET 0 -1.70687 -2.19456
      CHANNELS 3 Zrotation Xrotation Yrotation
      JOINT lShin
      {
        OFFSET 0 -36.8199 0.73152
        CHANNELS 3 Zrotation Xrotation Yrotation
        JOINT lFoot
        {
          OFFSET -0.73152 -45.1104 -5.12064
          CHANNELS 3 Zrotation Xrotation Yrotation
          End Site
          {
            OFFSET 1.1221 -3.69964 12.103
          }
        }
      }
    }
  }
}
MOTION
Frames:	4
Frame Time:	0.00833333
-38.4062 83.4058 203.733 -131.847 -83.7099 145.231 6.21147 -19.8631 5.91423 -2.64965 1.06335 1.27307 -24.0197 31.8618 -10.6502 61.0375 -30.0638 -15.5343 -0.0 0.0 0.0 -0.0 0.0 0.0 4.9656e-14 -2.73191e-12 -1.1239e-13 50.5309 -11.7774 29.9717 -28.0507 -40.1389 84.1707 -7.48646 58.4858 13.281 3.85088e-10 8.87146e-11 -9.09092e-13 6.69739e-10 1.84895e-10 -1.78846e-11 3.85093e-10 8.87182e-11 -9.16621e-13 7.73091 5.47488 0.417314 3.85087e-10 8.87185e-11 -9.05837e-13 2.90554 0.965183 0.102902 3.85073e-10 8.87193e-11 -9.20213e-13 10.2786 0.731801 0.0259123 3.85086e-10 8.87197e-11 -8.96344e-13 2.22167 -0.733487 -0.20892 4.95521e-14 -2.73191e-12 -1.12643e-13 -81.4589 37.1332 8.2688 14.6311 -7.47501 -26.8326 3.39342 -45.2095 8.13887 1.97297e-09 7.59028e-10 2.17053e-09 3.33318e-09 1.38825e-09 3.81255e-09 1.97297e-09 7.59028e-10 2.17054e-09 -7.73091 5.47488 -0.417314 1.97297e-09 7.59028e-10 2.17053e-09 -2.90554 0.965183 -0.102902 1.97296e-09 7.59028e-10 2.17052e-09 -10.2786 0.731801 -0.0259123 1.97298e-09 7.5903e-10 2.17051e-09 -2.22167 -0.733487 0.20892 -2.03217e-16 0.0 -3.88251e-19 -19.4244 -5.97038 -0.13616 0.00563187 5.20585 0.0826604 -0.59063 0.750242 0.0830236 2.03217e-16 0.0 3.88251e-19 6.56226 -19.0121 6.6998 0.0672304 14.0505 -0.258077 -0.707614 -9.50414 -6.33442
-38.4071 83.4047 203.735 -131.833 -83.6999 145.216 6.22585 -19.8148 5.88402 -2.49144 1.03885 1.26302 -24.1838 31.8464 -10.6078 61.1996 -30.0402 -15.4606 -0.0 0.0 0.0 -0.0 0.0 0.0 4.57853e-14 -3.77548e-12 -1.44765e-13 50.3462 -11.0634 29.5918 -28.0575 -40.1001 84.1014 -5.89282 54.5754 11.3955 7.19644e-11 8.93036e-11 -3.26961e-12 1.32696e-10 1.89567e-10 -6.72608e-12 7.19656e-11 8.93084e-11 -3.27915e-12 7.73091 5.47488 0.417314 7.19606e-11 8.93095e-11 -3.26961e-12 2.90554 0.965183 0.102902 7.19467e-11 8.93101e-11 -3.28392e-12 10.2786 0.731801 0.0259123 7.1963e-11 8.93104e-11 -3.26007e-12 2.22167 -0.733487 -0.20892 4.56586e-14 -3.77548e-12 -1.45013e-13 -81.5933 37.1148 8.27063 14.6762 -7.5132 -26.9247 3.4267 -45.3729 8.18573 1.98066e-09 8.62656e-10 2.48299e-09 3.33687e-09 1.57296e-09 4.35127e-09 1.98065e-09 8.62656e-10 2.483e-09 -7.73091 5.47488 -0.417314 1.98066e-09 8.62656e-10 2.48299e-09 -2.90554 0.965183 -0.102902 1.98065e-09 8.62656e-10 2.48298e-09 -10.2786 0.731801 -0.0259123 1.98066e-09 8.62659e-10 2.48297e-09 -2.22167 -0.733487 0.20892 -2.03217e-16 0.0 -3.88251e-19 -19.4236 -5.97252 -0.136255 0.00564889 5.20987 0.08286 -0.590429 0.748333 0.0829589 2.03217e-16 0.0 3.88251e-19 6.59961 -19.0219 6.72669 0.0674572 14.0808 -0.258376 -0.713631 -9.52013 -6.35249
-38.4076 83.4037 203.739 -131.876 -83.6945 145.262 6.20757 -19.7778 5.83749 -2.29281 0.997053 1.24851 -24.35 31.8483 -10.5669 61.3036 -30.025 -15.397 -0.0 0.0 0.0 -0.0 0.0 0.0 3.55024e-14 -3.5647e-12 -1.32338e-13 50.1138 -10.1894 29.2428 -28.0634 -40.0653 84.0398 -4.38873 49.8324 9.53062 -3.20508e-10 1.36352e-11 -1.08841e-11 -5.46934e-10 4.96649e-11 -7.00179e-12 -3.20508e-10 1.364e-11 -1.08937e-11 7.73091 5.47488 0.417314 -3.20512e-10 1.3641e-11 -1.08856e-11 2.90554 0.965183 0.102902 -3.20521e-10 1.36414e-11 -1.08976e-11 10.2786 0.731801 0.0259123 -3.20508e-10 1.36417e-11 -1.08786e-11 2.22167 -0.733487 -0.20892 3.53542e-14 -3.56469e-12 -1.32577e-13 -81.7924 37.0427 8.32082 14.7266 -7.55592 -27.0275 3.46565 -45.5626 8.24042 1.3003e-09 6.4534e-10 1.83994e-09 2.18444e-09 1.17593e-09 3.21833e-09 1.3003e-09 6.45339e-10 1.83995e-09 -7.73091 5.47488 -0.417314 1.3003e-09 6.45339e-10 1.83994e-09 -2.90554 0.965183 -0.102902 1.3003e-09 6.45339e-10 1.83994e-09 -10.2786 0.731801 -0.0259123 1.30031e-09 6.45342e-10 1.83993e-09 -2.22167 -0.733487 0.20892 -2.03217e-16 0.0 -3.88251e-19 -19.4234 -5.97294 -0.136275 0.00566099 5.2106 0.0829747 -0.590397 0.747994 0.0829478 2.03217e-16 0.0 3.88251e-19 6.61064 -19.0248 6.75671 0.0676109 14.0864 -0.258359 -0.719276 -9.52616 -6.37775
-38.4078 83.4027 203.742 -131.957 -83.6896 145.35 6.16556 -19.7486 5.77759 -2.05646 0.94073 1.23018 -24.526 31.864 -10.5254 61.3725 -30.0157 -15.3384 -0.0 0.0 0.0 -0.0 0.0 0.0 1.87215e-14 -2.60842e-12 -9.19845e-14 49.848 -9.17442 28.9205 -28.0694 -40.0288 83.9757 -3.11929 44.2499 7.8033 -7.83515e-10 -1.1298e-10 -2.51781e-11 -1.35212e-09 -1.86849e-10 -1.95498e-11 -7.83515e-10 -1.12976e-10 -2.51868e-11 7.73091 5.47488 0.417314 -7.83519e-10 -1.12975e-10 -2.51805e-11 2.90554 0.965183 0.102902 -7.8352e-10 -1.12975e-10 -2.51884e-11 10.2786 0.731801 0.0259123 -7.83515e-10 -1.12975e-10 -2.51775e-11 2.22167 -0.733487 -0.20892 1.85518e-14 -2.60841e-12 -9.22081e-14 -82.049 36.9252 8.41092 14.7822 -7.60328 -27.1414 3.51046 -45.778 8.30307 1.55872e-10 2.12807e-10 5.55766e-10 2.52109e-10 3.88811e-10 9.63613e-10 1.55866e-10 2.12806e-10 5.55773e-10 -7.73091 5.47488 -0.417314 1.55871e-10 2.12804e-10 5.55755e-10 -2.90554 0.965183 -0.102902 1.55867e-10 2.12806e-10 5.55764e-10 -10.2786 0.731801 -0.0259123 1.55879e-10 2.12808e-10 5.55752e-10 -2.22167 -0.733487 0.20892 -2.03217e-16 0.0 -3.88251e-19 -19.4236 -5.97226 -0.136248 0.00567046 5.20925 0.0830397 -0.590471 0.748653 0.0829707 2.03217e-16 0.0 3.88251e-19 6.60569 -19.024 6.79066 0.0677194 14.0764 -0.258149 -0.72516 -9.52649 -6.40977
